<?xml version="1.0" encoding="iso-8859-1"?>
<!-- Generator: Adobe Illustrator 19.0.0, SVG Export Plug-In . SVG Version: 6.00 Build 0)  -->
<svg version="1.1" id="Layer_1" xmlns="http://www.w3.org/2000/svg" xmlns:xlink="http://www.w3.org/1999/xlink" x="0px" y="0px"
	 viewBox="0 0 511.997 511.997" style="enable-background: new 0 0 511.997 511.997" xml:space="preserve">
<g transform="matrix(1,0,0,1,1,0)">
	<g>
		<path style="fill: #000" d="M 326.9 53.3 l 8.6 15 H 123.7 l 8.6 -15 c 6.5 -11.3 9.8 -23.7 9.8 -36.3 C 142.1 -3.4 161.1 -20 184.6 -20 h 90 c 23.5 0 42.5 16.6 42.5 37 C 317.1 29.6 320.5 42 326.9 53.3 L 326.9 53.3 z"/>
		<path style="fill:  #000" d="M 132.2 418.7 l -8.6 -15 h 211.9 l -8.6 15 c -6.5 11.3 -9.8 23.7 -9.8 36.3 l 0 0 c 0 20.4 -19 37 -42.5 37 h -90 c -23.5 0 -42.5 -16.6 -42.5 -37 l 0 0 C 142.1 442.4 138.7 430 132.2 418.7"/>
	</g>
	<path style="fill: #bdc3c7" d="M 401.9 271.3 h -22.3 v -70.6 h 22.3 c 7.2 0 13.1 5.8 13.1 13.1 v 44.5 C 415 265.5 409.1 271.3 401.9 271.3"/>
	<path style="fill:  #000" d="M 341.8 403.7 H 117.4 c -20.9 0 -37.9 -17 -37.9 -37.9 V 106.2 c 0 -20.9 17 -37.9 37.9 -37.9 h 224.3 c 20.9 0 37.9 17 37.9 37.9 v 259.6 C 379.7 386.8 362.7 403.7 341.8 403.7"/>
	<path style="fill: #f6d380" d="M 341.8 412.2 H 117.4 c -25.6 0 -46.4 -20.8 -46.4 -46.4 V 106.2 c 0 -25.6 20.8 -46.4 46.4 -46.4 h 224.3 c 25.6 0 46.4 20.8 46.4 46.4 v 259.6 C 388.2 391.4 367.3 412.2 341.8 412.2 z M 117.4 76.8 c -16.2 0 -29.4 13.2 -29.4 29.4 v 259.6 c 0 16.2 13.2 29.4 29.4 29.4 h 224.3 c 16.2 0 29.4 -13.2 29.4 -29.4 V 106.2 c 0 -16.2 -13.2 -29.4 -29.4 -29.4 H 117.4 z"/>
	<!-- add styles here -->
</g>
<g>
</g>
<g>
</g>
<g>
</g>
<g>
</g>
<g>
</g>
<g>
</g>
<g>
</g>
<g>
</g>
<g>
</g>
<g>
</g>
<g>
</g>
<g>
</g>
<g>
</g>
<g>
</g>
<g>
</g>
    <rect x="192" y="133" width="0" height="0" fill="rgb(255, 255, 255)"/>
</svg>
